<?xml version="1.0" standalone="no"?>
<!DOCTYPE svg PUBLIC "-//W3C//DTD SVG 20010904//EN"
 "http://www.w3.org/TR/2001/REC-SVG-20010904/DTD/svg10.dtd">
<svg version="1.0" xmlns="http://www.w3.org/2000/svg"
 width="700.000000pt" height="700.000000pt" viewBox="0 0 700.000000 700.000000"
 preserveAspectRatio="xMidYMid meet">
<metadata>
Created by potrace 1.11, written by Peter Selinger 2001-2013
</metadata>
<g transform="translate(0.000000,700.000000) scale(0.100000,-0.100000)"
fill="#000000" stroke="none">
<path d="M583 3500 l0 -3220 951 2 951 3 0 497 c0 329 -3 499 -10 501 -5 2
-207 2 -447 2 -241 -1 -438 1 -439 4 0 3 -1 1001 -2 2216 l0 2210 449 0 449 1
0 499 0 500 -951 3 -951 2 0 -3220z"/>
<path d="M4517 6713 c-6 -14 -2 -978 5 -988 4 -6 160 -10 440 -9 238 1 438 -2
443 -7 7 -5 9 -747 8 -2196 -1 -1203 -2 -2197 -2 -2209 -1 -20 -4 -20 -442
-20 -283 1 -443 -3 -448 -9 -4 -5 -7 -230 -7 -500 l1 -490 951 -3 950 -2 0
3220 0 3220 -947 0 c-521 0 -950 -3 -952 -7z"/>
</g>
</svg>
